<svg width="39" height="37" viewBox="0 0 39 37" fill="none" xmlns="http://www.w3.org/2000/svg">
<path opacity="0.35" d="M2.20833 6.25V32.7917C2.20833 35.0477 4.03562 36.875 6.29167 36.875H26.7083C30.0914 36.875 32.8333 34.133 32.8333 30.75V6.25C32.8333 2.86696 30.0914 0.125 26.7083 0.125H8.33333C4.95029 0.125 2.20833 2.86696 2.20833 6.25Z" fill="#5B5B5B"/>
<path d="M20.5833 30.75C20.5833 29.623 20.8875 28.5654 21.4204 27.6589C22.2065 26.3135 21.106 24.625 19.5482 24.625H6.29167C2.90862 24.625 0.166667 27.367 0.166667 30.75C0.166667 34.133 2.90862 36.875 6.29167 36.875H26.7083C23.3253 36.875 20.5833 34.133 20.5833 30.75Z" fill="#5B5B5B"/>
<line x1="19.0417" y1="9.83333" x2="38.4583" y2="9.83333" stroke="black" stroke-linecap="round"/>
<line x1="19.0417" y1="13.9167" x2="34.375" y2="13.9167" stroke="black" stroke-linecap="round"/>
<line x1="19.0417" y1="18" x2="30.2917" y2="18" stroke="black" stroke-linecap="round"/>
</svg>
